<svg width="24" height="24" viewBox="0 0 24 24" fill="none" xmlns="http://www.w3.org/2000/svg">
<path d="M12 22V13M12 22L9.49999 20M12 22L14.5 20M5.03399 9.117C4.0882 9.355 3.26187 9.93016 2.71025 10.7344C2.15862 11.5387 1.91967 12.5168 2.0383 13.4848C2.15692 14.4528 2.62495 15.3442 3.35446 15.9915C4.08396 16.6388 5.02472 16.9974 5.99999 17H6.99999" stroke="#D8D8D8" stroke-width="2" stroke-linecap="round" stroke-linejoin="round"/>
<path d="M15.83 7.13799C15.4882 5.78456 14.6446 4.61173 13.4701 3.85725C12.2956 3.10277 10.8783 2.82308 9.50523 3.0749C8.13221 3.32671 6.90631 4.09118 6.07604 5.21333C5.24576 6.33549 4.87324 7.73136 5.03398 9.11799C5.03398 9.11799 5.18698 9.99999 5.49998 10.5" stroke="#D8D8D8" stroke-width="2" stroke-linecap="round" stroke-linejoin="round"/>
<path d="M17 17C17.706 16.9995 18.404 16.8495 19.0479 16.5599C19.6917 16.2702 20.267 15.8475 20.7357 15.3195C21.2045 14.7915 21.5561 14.1702 21.7674 13.4965C21.9787 12.8229 22.045 12.1121 21.9618 11.4109C21.8786 10.7098 21.6479 10.0343 21.2848 9.42874C20.9217 8.82321 20.4345 8.30145 19.8552 7.89778C19.276 7.49412 18.6178 7.21772 17.924 7.08676C17.2302 6.9558 16.5166 6.97327 15.83 7.138L14.5 7.5" stroke="#D8D8D8" stroke-width="2" stroke-linecap="round" stroke-linejoin="round"/>
</svg>
