<svg width="78" height="78" viewBox="0 0 78 78" fill="none" xmlns="http://www.w3.org/2000/svg">
<path d="M69.6429 0H8.35714C3.7433 0 0 3.7433 0 8.35714V69.6429C0 74.2567 3.7433 78 8.35714 78H69.6429C74.2567 78 78 74.2567 78 69.6429V8.35714C78 3.7433 74.2567 0 69.6429 0ZM3.70848 34.3339H3.65625C3.67366 34.3165 3.69107 34.2817 3.70848 34.2643V34.3339ZM16.8884 50.108H11.1429V27.8571H16.8884V50.108ZM36.5973 50.108H31.6004V35.0652L29.5808 50.108H25.9942L23.8701 35.396V50.108H18.821V27.8571H26.2728C26.8473 31.3045 27.3174 34.804 27.7875 38.2862L29.1107 27.8571H36.5973V50.108ZM38.5821 50.108V27.8571H42.8652C45.9295 27.8571 50.6478 27.5786 51.3964 31.496C51.6924 32.8192 51.6402 34.3339 51.6402 35.7442C51.6402 51.1527 53.5728 50.1254 38.5821 50.108V50.108ZM66.596 45.0241C66.596 47.7576 66.1781 50.404 62.7308 50.404C61.1638 50.404 60.0844 49.8817 59.092 48.6978L58.7612 50.108H53.5728V27.8571H59.092V35.1174C60.1366 33.9857 61.1813 33.5156 62.7308 33.5156C66.4567 33.5156 66.596 35.7442 66.596 38.7563V45.0241ZM46.1384 34.4558C46.1384 32.767 46.417 31.6701 44.3451 31.6701V46.2429C46.4692 46.2951 46.1384 44.7281 46.1384 43.0393V34.4558ZM61.0246 39C61.0246 38.0598 61.2161 36.7888 59.9451 36.7888C58.9004 36.7888 59.092 38.3384 59.092 39C59.092 39.1045 58.9004 45.8946 59.2835 46.7826C59.4228 47.0612 59.6665 47.2004 59.9451 47.2004C61.3031 47.2004 61.0246 45.6335 61.0246 44.6933V39Z" fill="#D8D8D8"/>
</svg>
