<svg width="224" height="224" viewBox="0 0 224 224" fill="none" xmlns="http://www.w3.org/2000/svg">
<path d="M112 0C169.274 0 215.876 43.8176 215.876 97.6836C215.876 100.509 215.748 103.365 215.495 106.203L213.453 149.138L147.818 143.749L149.86 100.841C149.948 99.8148 150.009 98.7351 150.009 97.6836C150.009 77.9716 132.954 61.9606 112 61.9606C91.0467 61.9606 73.991 77.9843 73.991 97.6836C73.991 98.7351 74.0393 99.8025 74.1407 100.841L76.1684 143.749L10.5469 149.138L8.50529 106.203C8.25232 103.37 8.12519 100.527 8.1243 97.6832C8.1243 43.8176 54.7262 0 112 0ZM145.668 169.102L211.248 174.845L206.962 223.755L141.381 218.012L145.668 169.102ZM78.4137 169.347L82.6868 218.271L17.1063 224L12.833 175.09L78.4137 169.347V169.347Z" fill="#D8D8D8"/>
</svg>
