<svg width="1024" height="1024" viewBox="0 0 1024 1024" fill="none" xmlns="http://www.w3.org/2000/svg">
<path d="M945 412H689C684.6 412 681 415.6 681 420V468C681 472.4 684.6 476 689 476H945C949.4 476 953 472.4 953 468V420C953 415.6 949.4 412 945 412ZM811 548H689C684.6 548 681 551.6 681 556V604C681 608.4 684.6 612 689 612H811C815.4 612 819 608.4 819 604V556C819 551.6 815.4 548 811 548ZM477.3 322.5H434C427.8 322.5 422.8 327.5 422.8 333.7V581.7C422.8 585.3 424.5 588.6 427.4 590.7L576.3 699.3C581.3 702.9 588.3 701.9 591.9 696.9L617.6 661.8V661.7C621.2 656.7 620.1 649.7 615.1 646.1L488.4 554.5V333.7C488.5 327.5 483.4 322.5 477.3 322.5V322.5Z" fill="#D8D8D8"/>
<path d="M804.8 673.9H747C741.4 673.9 736.1 676.8 733.1 681.6C720.4 701.7 705.6 720.3 688.6 737.3C659.3 766.6 625.2 789.6 587.3 805.6C548 822.2 506.3 830.6 463.3 830.6C420.2 830.6 378.5 822.2 339.3 805.6C301.4 789.6 267.3 766.6 238 737.3C208.7 708 185.7 673.9 169.7 636C153.1 596.8 144.7 555.1 144.7 512C144.7 468.9 153.1 427.3 169.7 388C185.7 350.1 208.7 316 238 286.7C267.3 257.4 301.4 234.4 339.3 218.4C378.5 201.8 420.3 193.4 463.3 193.4C506.4 193.4 548.1 201.8 587.3 218.4C625.2 234.4 659.3 257.4 688.6 286.7C705.6 303.7 720.4 322.3 733.1 342.4C736.1 347.2 741.4 350.1 747 350.1H804.8C811.7 350.1 816.1 342.9 813 336.8C747.8 207.1 615.6 122.8 468 121.1C251.9 118.4 72.4 295.3 72 511.2C71.6 727.5 246.9 903 463.2 903C612.7 903 747.1 818.4 813 687.2C816.1 681.1 811.6 673.9 804.8 673.9V673.9Z" fill="#D8D8D8"/>
</svg>
