<svg width="16" height="16" viewBox="0 0 16 16" fill="none" xmlns="http://www.w3.org/2000/svg">
<g clip-path="url(#clip0_104_14)">
<path d="M0.00100708 8.025V8.028C0.00300708 8.089 0.0100071 8.148 0.0220071 8.205L0.0330071 8.295L0.0440071 8.39L0.0630071 8.518L0.108007 8.814L0.176007 9.14C0.187007 9.198 0.204007 9.257 0.220007 9.318L0.269007 9.506C0.278007 9.538 0.285007 9.571 0.296007 9.603L0.327007 9.701L0.392007 9.904L0.409007 9.956L0.428007 10.008L0.467007 10.113L0.548007 10.328L0.642007 10.546L0.690007 10.657C0.706007 10.694 0.725007 10.73 0.743007 10.768L0.853007 10.992C0.892007 11.067 0.934007 11.141 0.976007 11.216L1.03901 11.329C1.06001 11.367 1.08401 11.403 1.10701 11.441L1.24701 11.665C1.44501 11.96 1.66401 12.252 1.90701 12.529C2.15201 12.804 2.41801 13.064 2.69901 13.304C2.98301 13.54 3.28101 13.756 3.58501 13.946C3.89101 14.134 4.20401 14.295 4.51301 14.433L4.74501 14.528C4.78301 14.543 4.82101 14.56 4.86001 14.574L4.97501 14.615C5.01301 14.629 5.12601 14.669 5.20101 14.693L5.42501 14.759C5.46201 14.77 5.49801 14.781 5.53401 14.79L5.64301 14.817L5.85601 14.869L6.06301 14.909L6.16401 14.928L6.21301 14.937L6.26201 14.944L6.45401 14.971L6.54701 14.984L6.63801 14.993L6.81201 15.008C6.86801 15.013 6.92301 15.019 6.97601 15.02H6.98701C6.99173 15.2821 7.09916 15.5318 7.28619 15.7155C7.47322 15.8992 7.72488 16.002 7.98701 16.002L8.01201 16.001H8.01601C8.07551 15.9992 8.13473 15.9922 8.19301 15.98L8.28301 15.969L8.37801 15.958L8.50601 15.939L8.80201 15.894L9.12801 15.826C9.18601 15.815 9.24501 15.798 9.30601 15.782L9.49401 15.733C9.52601 15.724 9.55901 15.717 9.59101 15.706L9.68901 15.675L9.89201 15.61L9.94401 15.593L9.99601 15.574L10.101 15.535L10.316 15.454L10.534 15.36L10.645 15.312C10.682 15.296 10.718 15.277 10.756 15.259L10.98 15.149C11.055 15.11 11.129 15.068 11.204 15.026L11.317 14.963C11.355 14.942 11.391 14.918 11.429 14.895L11.653 14.755C11.948 14.558 12.24 14.338 12.517 14.095C12.792 13.85 13.052 13.584 13.292 13.303C13.528 13.019 13.744 12.721 13.934 12.417C14.122 12.111 14.283 11.798 14.421 11.489L14.516 11.257C14.531 11.219 14.548 11.181 14.562 11.142L14.602 11.027C14.615 10.989 14.656 10.876 14.68 10.801L14.746 10.577C14.757 10.54 14.768 10.504 14.777 10.468L14.804 10.359L14.856 10.146L14.896 9.939L14.915 9.838L14.924 9.789C14.9269 9.77242 14.9292 9.75574 14.931 9.739L14.958 9.547L14.971 9.454L14.98 9.363L14.995 9.189C15 9.133 15.006 9.078 15.007 9.024L15.008 8.999C15.2725 8.99794 15.5259 8.89212 15.7125 8.7047C15.8992 8.51728 16.004 8.26353 16.004 7.999L16.003 7.974V7.971C16.0012 7.9115 15.9942 7.85228 15.982 7.794L15.971 7.704L15.96 7.609L15.941 7.481L15.896 7.185L15.828 6.859C15.817 6.801 15.8 6.742 15.784 6.681L15.735 6.493C15.726 6.461 15.719 6.428 15.708 6.396L15.677 6.298L15.612 6.095L15.595 6.043L15.576 5.991L15.537 5.886L15.456 5.671L15.362 5.453L15.314 5.342C15.298 5.305 15.279 5.269 15.261 5.231L15.151 5.007C15.112 4.932 15.07 4.858 15.028 4.783L14.965 4.67C14.944 4.632 14.92 4.596 14.897 4.558L14.757 4.334C14.5561 4.0319 14.3356 3.74328 14.097 3.47C13.8509 3.19403 13.5863 2.9351 13.305 2.695C13.0244 2.46141 12.7284 2.24693 12.419 2.053C12.1206 1.87062 11.8106 1.70794 11.491 1.566L11.259 1.471C11.221 1.456 11.183 1.439 11.144 1.425L11.029 1.385C10.991 1.372 10.878 1.331 10.803 1.307L10.579 1.241C10.542 1.231 10.506 1.219 10.47 1.21L10.361 1.183C10.29 1.16552 10.219 1.14819 10.148 1.131L9.94101 1.091L9.84001 1.072L9.79101 1.063L9.74201 1.056L9.55001 1.029L9.45701 1.016L9.36601 1.007L9.19201 0.992001C9.13601 0.987001 9.08101 0.981001 9.02801 0.980001L8.98901 0.979001C8.98403 0.717264 8.87662 0.467914 8.68984 0.284495C8.50305 0.101076 8.25179 -0.00178437 7.99001 -0.0019989L7.96501 -0.000998901H7.96201C7.90251 0.00082279 7.84328 0.00784961 7.78501 0.0200011L7.69501 0.0310011L7.60001 0.0420011L7.47201 0.0610011L7.17601 0.106001L6.85001 0.174001C6.79201 0.185001 6.73301 0.202001 6.67201 0.218001L6.48401 0.267001C6.45201 0.276001 6.41901 0.283001 6.38701 0.294001L6.28901 0.325001L6.08601 0.390001L6.03401 0.407001L5.98201 0.426001L5.87701 0.465001L5.66201 0.546001L5.44401 0.640001L5.33301 0.688001C5.29601 0.704001 5.26001 0.723001 5.22201 0.741001L4.99801 0.851001C4.92301 0.890001 4.84901 0.932001 4.77401 0.974001L4.66101 1.037C4.62301 1.058 4.58701 1.082 4.54901 1.105L4.32501 1.245C4.02313 1.44622 3.73454 1.66668 3.46101 1.905C3.18503 2.15114 2.92611 2.41575 2.68601 2.697C2.45241 2.97763 2.23793 3.27363 2.04401 3.583C1.86162 3.88139 1.69894 4.19139 1.55701 4.511L1.46201 4.743C1.44701 4.781 1.43001 4.819 1.41601 4.858L1.37601 4.973C1.36301 5.011 1.32201 5.124 1.29801 5.199L1.23201 5.423L1.20001 5.532C1.19001 5.568 1.18201 5.605 1.17301 5.641L1.12101 5.854L1.08101 6.061L1.06201 6.162L1.05301 6.211C1.05012 6.22758 1.04778 6.24426 1.04601 6.261L1.01901 6.453L1.00601 6.546L0.997007 6.637L0.982007 6.811C0.977007 6.867 0.971007 6.922 0.970007 6.976L0.969007 7.001C0.709725 7.00956 0.463917 7.11855 0.283486 7.30495C0.103055 7.49135 0.00212521 7.74058 0.00200708 8L0.00300708 8.025H0.00100708ZM1.14901 7.011L1.15101 7.002C1.16101 6.951 1.17701 6.9 1.19101 6.847L1.23601 6.684L1.26001 6.6L1.28801 6.514L1.34601 6.338L1.36101 6.293L1.37801 6.248L1.41301 6.157L1.48601 5.971L1.57001 5.782L1.61301 5.686L1.66101 5.59L1.75901 5.396C1.79301 5.331 1.83201 5.268 1.86801 5.202L1.92401 5.104C1.94301 5.071 1.96401 5.04 1.98501 5.008L2.10901 4.814C2.28724 4.5538 2.48198 4.30529 2.69201 4.07C2.90901 3.834 3.14301 3.611 3.38901 3.405C3.63901 3.203 3.90001 3.02 4.16501 2.858C4.43301 2.699 4.70601 2.564 4.97301 2.448L5.17501 2.369C5.20801 2.356 5.24101 2.342 5.27401 2.331L5.37401 2.298C5.40701 2.287 5.50501 2.253 5.57001 2.233L5.76401 2.179C5.79601 2.17 5.82701 2.16 5.85901 2.153L5.95301 2.132L6.13701 2.09L6.31601 2.058L6.40301 2.043L6.44601 2.035C6.46001 2.032 6.47501 2.032 6.48901 2.03L6.65501 2.01L6.73501 2L6.81301 1.994L6.96301 1.983C7.01201 1.98 7.05801 1.975 7.10501 1.975L7.36101 1.969L7.56101 1.976L7.64601 1.978C7.75946 1.98428 7.8728 1.99228 7.98601 2.002L8.00801 2.001H8.01201C8.24514 1.99513 8.4689 1.90796 8.64457 1.75457C8.82023 1.60118 8.93677 1.39122 8.97401 1.161L8.99901 1.167C9.05001 1.177 9.10101 1.193 9.15401 1.207L9.31701 1.252L9.40101 1.276L9.48701 1.304L9.66301 1.362L9.70801 1.377L9.75301 1.394L9.84401 1.429L10.03 1.502L10.219 1.586L10.315 1.629L10.411 1.677L10.605 1.775C10.67 1.809 10.734 1.848 10.799 1.884L10.897 1.94C10.93 1.959 10.961 1.98 10.993 2.001L11.187 2.125C11.442 2.301 11.693 2.494 11.931 2.708C12.167 2.925 12.39 3.159 12.596 3.405C12.798 3.655 12.981 3.916 13.143 4.181C13.302 4.449 13.437 4.722 13.553 4.989L13.632 5.191C13.645 5.224 13.659 5.257 13.67 5.29L13.703 5.39C13.714 5.423 13.748 5.521 13.768 5.586L13.822 5.78C13.831 5.812 13.841 5.843 13.848 5.875L13.869 5.969L13.911 6.153L13.943 6.332L13.958 6.419L13.966 6.462C13.969 6.476 13.969 6.491 13.971 6.505L13.991 6.671L14.001 6.751L14.007 6.829L14.018 6.979C14.021 7.028 14.026 7.074 14.026 7.121L14.032 7.377L14.025 7.577L14.023 7.662C14.0167 7.77545 14.0087 7.8888 13.999 8.002L14 8.024V8.028C14.0058 8.25816 14.0909 8.47926 14.2408 8.65398C14.3908 8.8287 14.5964 8.94632 14.823 8.987L14.82 9.001C14.81 9.052 14.795 9.103 14.78 9.156L14.735 9.319L14.711 9.403L14.683 9.489L14.625 9.665L14.61 9.71L14.593 9.755L14.558 9.846L14.485 10.032L14.401 10.221L14.358 10.317L14.31 10.413L14.212 10.607C14.178 10.672 14.139 10.736 14.103 10.801L14.047 10.899C14.028 10.932 14.007 10.963 13.986 10.995L13.862 11.189C13.6838 11.4492 13.489 11.6977 13.279 11.933C13.0613 12.1695 12.8285 12.3917 12.582 12.598C12.332 12.8 12.071 12.983 11.806 13.145C11.5455 13.2984 11.2757 13.4354 10.998 13.555L10.796 13.634C10.763 13.647 10.73 13.661 10.697 13.672L10.597 13.705C10.564 13.716 10.466 13.75 10.401 13.77L10.207 13.824C10.175 13.833 10.144 13.843 10.112 13.85L10.018 13.871L9.83401 13.913L9.65501 13.945L9.56801 13.96L9.52501 13.968C9.51001 13.971 9.49601 13.971 9.48201 13.973L9.31601 13.993L9.23601 14.003L9.15801 14.009L9.00801 14.02C8.95901 14.023 8.91301 14.028 8.86601 14.028C8.78067 14.0299 8.69534 14.0319 8.61001 14.034L8.41001 14.027L8.32501 14.025C8.21156 14.0187 8.09821 14.0107 7.98501 14.001L7.96301 14.002H7.96001C7.72797 14.008 7.50524 14.0945 7.32994 14.2467C7.15464 14.3988 7.03765 14.6071 6.99901 14.836C6.94901 14.826 6.89801 14.811 6.84601 14.797L6.68301 14.752L6.59901 14.728L6.51301 14.7L6.33701 14.642L6.29201 14.627L6.24701 14.61L6.15601 14.575C6.09393 14.5509 6.03193 14.5265 5.97001 14.502C5.90717 14.4736 5.84417 14.4456 5.78101 14.418L5.68501 14.375L5.58901 14.327L5.39501 14.229C5.33001 14.195 5.26601 14.156 5.20101 14.12L5.10301 14.064C5.07001 14.045 5.03901 14.024 5.00701 14.003L4.81301 13.879C4.55257 13.7011 4.30404 13.5063 4.06901 13.296C3.83248 13.0783 3.61035 12.8455 3.40401 12.599C3.20497 12.3525 3.02225 12.0933 2.85701 11.823C2.70357 11.5625 2.56664 11.2926 2.44701 11.015L2.36801 10.813C2.35501 10.78 2.34101 10.747 2.33001 10.714L2.29701 10.614C2.28601 10.581 2.25201 10.483 2.23201 10.418L2.17801 10.224C2.16901 10.192 2.15901 10.161 2.15201 10.129L2.13101 10.035C2.11708 9.97365 2.10308 9.91232 2.08901 9.851L2.05701 9.672L2.04201 9.585L2.03401 9.542C2.03101 9.527 2.03101 9.513 2.02901 9.499C2.02197 9.44371 2.0153 9.38838 2.00901 9.333L1.99901 9.253L1.99301 9.175L1.98201 9.025C1.97901 8.976 1.97401 8.93 1.97401 8.883C1.97215 8.79766 1.97015 8.71233 1.96801 8.627L1.97501 8.427L1.97701 8.342C1.98329 8.22855 1.99129 8.11521 2.00101 8.002L2.00001 7.98V7.977C1.99416 7.7419 1.90563 7.51639 1.75 7.34008C1.59436 7.16378 1.38156 7.04797 1.14901 7.013V7.011Z" fill="#D8D8D8"/>
</g>
<defs>
<clipPath id="clip0_104_14">
<rect width="16" height="16" fill="white"/>
</clipPath>
</defs>
</svg>
