<svg width="24" height="24" viewBox="0 0 24 24" fill="none" xmlns="http://www.w3.org/2000/svg">
<path d="M11.0741 2.633C11.3941 1.789 12.6051 1.789 12.9261 2.633L14.9961 8.367C15.0683 8.55379 15.1955 8.71428 15.3608 8.8273C15.5261 8.94031 15.7218 9.00053 15.9221 9H21.0091C21.9491 9 22.3591 10.17 21.6201 10.743L18.0001 14C17.8379 14.1247 17.7194 14.2975 17.6616 14.4937C17.6037 14.6898 17.6095 14.8993 17.6781 15.092L19.0001 20.695C19.3221 21.595 18.2801 22.368 17.4921 21.814L12.5751 18.694C12.4067 18.5757 12.2059 18.5122 12.0001 18.5122C11.7943 18.5122 11.5935 18.5757 11.4251 18.694L6.50808 21.814C5.72108 22.368 4.67808 21.594 5.00008 20.695L6.32208 15.092C6.39066 14.8993 6.39643 14.6898 6.33859 14.4937C6.28074 14.2975 6.16223 14.1247 6.00008 14L2.38008 10.743C1.64008 10.17 2.05208 9 2.99008 9H8.07708C8.27737 9.00067 8.47314 8.9405 8.63849 8.82747C8.80385 8.71444 8.93098 8.55387 9.00308 8.367L11.0731 2.633H11.0741Z" stroke="#D8D8D8" stroke-width="2" stroke-linecap="round" stroke-linejoin="round"/>
</svg>
    