<svg width="24" height="24" viewBox="0 0 24 24" fill="none" xmlns="http://www.w3.org/2000/svg">
<g clip-path="url(#clip0_113_61)">
<path d="M23.4999 6.50695C23.364 6.02219 23.0993 5.5833 22.7339 5.23695C22.3582 4.87996 21.8977 4.62459 21.3959 4.49495C19.5179 3.99995 11.9939 3.99995 11.9939 3.99995C8.85722 3.96427 5.72131 4.12123 2.60388 4.46995C2.10207 4.60917 1.64245 4.87024 1.26588 5.22995C0.895885 5.58595 0.627885 6.02495 0.487885 6.50595C0.151578 8.3177 -0.0118232 10.1573 -0.000115239 12C-0.0121152 13.841 0.150885 15.68 0.487885 17.494C0.624885 17.973 0.891885 18.41 1.26288 18.763C1.63388 19.116 2.09588 19.371 2.60388 19.506C4.50688 20 11.9939 20 11.9939 20C15.1345 20.0357 18.2744 19.8787 21.3959 19.53C21.8977 19.4003 22.3582 19.145 22.7339 18.788C23.0991 18.4417 23.3636 18.0027 23.4989 17.518C23.844 15.7069 24.0118 13.8665 23.9999 12.023C24.0258 10.1716 23.8583 8.32252 23.4999 6.50595V6.50695ZM9.60188 15.424V8.57695L15.8619 12.001L9.60188 15.424Z" fill="#D8D8D8"/>
</g>
<defs>
<clipPath id="clip0_113_61">
<rect width="24" height="24" fill="white"/>
</clipPath>
</defs>
</svg>
